<svg xmlns="http://www.w3.org/2000/svg" width="19.563" height="19.583" viewBox="0 0 19.563 19.583">
  <g id="noun-external-3734197" transform="translate(-2.6 -2.5)">
    <path id="Path_713" data-name="Path 713" d="M16.261,35.381H4.54V23.66h7.594l1.96-1.96H3.57a.969.969,0,0,0-.97.97V36.351a.969.969,0,0,0,.97.97H17.251a.969.969,0,0,0,.97-.97V25.827l-1.96,1.96Z" transform="translate(0 -15.238)" fill="#8d2528"/>
    <path id="Path_714" data-name="Path 714" d="M47.463,2.5h-5.51a.97.97,0,0,0,0,1.94H45.09l-9.121,9.141a.96.96,0,0,0,0,1.383.947.947,0,0,0,1.362,0l9.141-9.121V8.979a.97.97,0,1,0,1.94,0V3.47A.939.939,0,0,0,47.463,2.5Z" transform="translate(-26.25)" fill="#8d2528"/>
  </g>
</svg>
